<svg xmlns="http://www.w3.org/2000/svg" xmlns:xlink="http://www.w3.org/1999/xlink" width="100" zoomAndPan="magnify" viewBox="0 0 75 74.999997" height="100" preserveAspectRatio="xMidYMid meet" version="1.0"><defs><clipPath id="499a444876"><path d="M 0.828125 0.828125 L 41.554688 0.828125 L 41.554688 44.863281 L 0.828125 44.863281 Z M 0.828125 0.828125 " clip-rule="nonzero"/></clipPath><clipPath id="1d382bda43"><path d="M 41.390625 4.761719 C 13.84375 36.074219 8.675781 44.675781 5.339844 44.84375 C 3.527344 44.941406 1.039062 42.792969 0.964844 41.050781 C 0.796875 37.863281 9.519531 32.234375 14.546875 26.675781 C 21.140625 19.402344 32.207031 1.304688 36.945312 0.964844 C 38.878906 0.820312 41.390625 4.761719 41.390625 4.761719 " clip-rule="nonzero"/></clipPath><clipPath id="fd10703f8b"><path d="M 1.8125 9.441406 L 74.519531 9.441406 L 74.519531 48.75 L 1.8125 48.75 Z M 1.8125 9.441406 " clip-rule="nonzero"/></clipPath><clipPath id="4de7ca8a6a"><path d="M 4.300781 9.449219 C 13.554688 14.015625 16.574219 16.1875 19.691406 18.023438 C 23.003906 20.007812 25.878906 21.671875 30.105469 23.992188 C 36.507812 27.496094 48.855469 34.191406 54.558594 36.703125 C 57.457031 38.007812 58.714844 38.371094 61.347656 39.214844 C 64.898438 40.375 72.65625 40.519531 74.035156 42.695312 C 74.925781 44.144531 74.300781 47.550781 72.945312 48.398438 C 70.84375 49.703125 62.554688 45.644531 59.558594 44.75 C 58.039062 44.289062 57.386719 44.097656 56.128906 43.613281 C 54.484375 42.984375 53.035156 42.355469 50.570312 41.171875 C 45.425781 38.707031 33.367188 32.378906 27.132812 28.96875 C 22.90625 26.675781 19.933594 24.9375 16.648438 22.976562 C 13.628906 21.167969 10.753906 19.0625 8.09375 17.636719 C 5.917969 16.453125 2.535156 16.261719 1.980469 14.835938 C 1.472656 13.484375 4.300781 9.449219 4.300781 9.449219 " clip-rule="nonzero"/></clipPath></defs><g clip-path="url(#499a444876)"><g clip-path="url(#1d382bda43)"><path fill="#bc0000" d="M 0 0 L 42.378906 0 L 42.378906 45.855469 L 0 45.855469 Z M 0 0 " fill-opacity="1" fill-rule="nonzero"/></g></g><g clip-path="url(#fd10703f8b)"><g clip-path="url(#4de7ca8a6a)"><path fill="#bc0000" d="M 1.015625 8.480469 L 75 8.480469 L 75 49.386719 L 1.015625 49.386719 Z M 1.015625 8.480469 " fill-opacity="1" fill-rule="nonzero"/></g></g></svg>