<svg xmlns="http://www.w3.org/2000/svg" xmlns:xlink="http://www.w3.org/1999/xlink" zoomAndPan="magnify" viewBox="0 0 375 374.999991" preserveAspectRatio="xMidYMid meet" version="1.0"><defs><g/><clipPath id="e1a7c04632"><path d="M 249 81 L 373.671875 81 L 373.671875 99 L 249 99 Z M 249 81 " clip-rule="nonzero"/></clipPath><clipPath id="1b23c87889"><path d="M 306 101 L 350 101 L 350 111.445312 L 306 111.445312 Z M 306 101 " clip-rule="nonzero"/></clipPath></defs><path fill="#ffffff" d="M 136.917969 0.984375 C 139.621094 0.542969 142.332031 0.0390625 145.078125 0.00390625 C 137.164062 1.222656 129.335938 3.15625 121.859375 6.046875 C 114.960938 8.710938 108.449219 12.351562 102.566406 16.828125 C 97.09375 20.921875 92.191406 25.703125 86.988281 30.125 C 81.132812 34.988281 74.734375 39.15625 68.117188 42.902344 C 53.933594 50.867188 38.765625 56.953125 23.332031 62.027344 C 16.679688 64.183594 9.96875 66.179688 3.183594 67.902344 C 2.183594 68.125 1.203125 68.472656 0.171875 68.535156 C 4.042969 67.59375 7.839844 66.378906 11.660156 65.253906 C 27.832031 60.277344 43.746094 54.285156 58.769531 46.460938 C 69.371094 40.914062 79.542969 34.40625 88.457031 26.386719 C 90.578125 24.546875 92.496094 22.484375 94.648438 20.671875 C 106.558594 10.351562 121.46875 3.78125 136.917969 0.984375 Z M 136.917969 0.984375 " fill-opacity="1" fill-rule="nonzero"/><path fill="#ffffff" d="M 174.433594 2.242188 C 191.585938 1.117188 208.804688 2.449219 225.796875 4.851562 C 230.238281 5.191406 234.386719 6.898438 238.566406 8.289062 C 251.671875 12.78125 264.636719 17.726562 277.207031 23.5625 C 266.472656 22.601562 255.6875 22.285156 244.914062 22.257812 C 232.035156 22.199219 219.160156 22.578125 206.296875 23.210938 C 203.238281 23.382812 200.140625 23.480469 197.109375 22.917969 C 194.707031 22.472656 192.335938 21.554688 190.453125 19.960938 C 185.335938 15.371094 180.472656 10.46875 174.945312 6.363281 C 173.988281 5.609375 172.796875 5.09375 172.113281 4.050781 C 171.847656 3.699219 171.800781 3.128906 172.207031 2.863281 C 172.84375 2.398438 173.671875 2.332031 174.433594 2.242188 Z M 174.433594 2.242188 " fill-opacity="1" fill-rule="nonzero"/><path fill="#ffffff" d="M 146.972656 5.363281 C 151.351562 4.914062 155.835938 5.125 160.074219 6.378906 C 165.714844 7.984375 170.800781 11.234375 174.9375 15.351562 C 178.417969 18.78125 181.242188 22.824219 183.605469 27.085938 C 166.65625 27.773438 149.703125 28.398438 132.753906 29.097656 C 130.425781 24.027344 127.417969 19.203125 123.453125 15.253906 C 122.800781 14.5625 121.894531 14.019531 121.605469 13.066406 C 121.554688 12.316406 122.382812 11.992188 122.9375 11.714844 C 125.800781 10.511719 128.746094 9.515625 131.714844 8.597656 C 136.691406 7.082031 141.785156 5.871094 146.972656 5.363281 Z M 146.972656 5.363281 " fill-opacity="1" fill-rule="nonzero"/><path fill="#ffffff" d="M 113.800781 15.949219 C 114.917969 15.394531 116.007812 14.625 117.296875 14.574219 C 118.28125 14.675781 119.039062 15.40625 119.78125 15.996094 C 121.957031 17.957031 123.648438 20.382812 125.257812 22.8125 C 126.148438 24.199219 127.003906 25.609375 127.789062 27.0625 C 128.054688 27.589844 128.359375 28.234375 128.09375 28.820312 C 127.699219 29.425781 126.886719 29.355469 126.257812 29.375 C 121.613281 29.3125 116.96875 29.394531 112.324219 29.53125 C 107.878906 29.726562 103.421875 29.96875 99.023438 30.683594 C 97.421875 30.960938 95.800781 31.265625 94.308594 31.9375 C 97.699219 26.15625 102.984375 21.707031 108.800781 18.488281 C 110.421875 17.558594 112.125 16.777344 113.800781 15.949219 Z M 113.800781 15.949219 " fill-opacity="1" fill-rule="nonzero"/><path fill="#ffffff" d="M 221.617188 26.089844 C 231.773438 25.839844 241.925781 25.578125 252.074219 25.109375 C 263.023438 24.738281 274 24.890625 284.914062 25.902344 C 294.355469 26.730469 303.777344 27.738281 313.171875 28.976562 C 318.128906 29.640625 323.078125 30.359375 327.980469 31.339844 C 335.242188 32.75 342.589844 34.191406 349.402344 37.175781 C 351.449219 38.089844 353.453125 39.117188 355.351562 40.308594 C 351.484375 38.816406 347.519531 37.546875 343.445312 36.765625 C 341.714844 36.414062 339.953125 36.238281 338.21875 35.894531 C 336.253906 35.730469 334.277344 35.910156 332.308594 35.886719 C 326.1875 35.933594 320.046875 36.128906 313.972656 36.960938 C 313.179688 37.085938 312.261719 37.226562 311.765625 37.933594 C 311.328125 38.628906 311.660156 39.476562 311.972656 40.152344 C 314.082031 43.863281 315.96875 47.695312 317.921875 51.484375 C 319.261719 54.160156 320.65625 56.804688 321.953125 59.5 C 316.632812 51.023438 309.300781 43.84375 300.800781 38.582031 C 299.347656 37.6875 297.863281 36.839844 296.320312 36.109375 C 294.222656 35.144531 291.953125 34.617188 289.679688 34.257812 C 285.304688 33.691406 280.992188 32.757812 276.644531 32.039062 C 255.910156 28.445312 234.886719 26.339844 213.835938 26.308594 C 216.425781 26.125 219.023438 26.164062 221.617188 26.089844 Z M 221.617188 26.089844 " fill-opacity="1" fill-rule="nonzero"/><path fill="#ffffff" d="M 273.375 37.59375 C 276.660156 38.28125 279.972656 39.476562 282.492188 41.765625 C 283.953125 43.066406 285.035156 44.800781 285.5 46.703125 C 285.808594 47.953125 285.648438 49.355469 284.871094 50.410156 C 283.9375 51.699219 282.441406 52.449219 280.960938 52.929688 C 282.316406 51.894531 283.71875 50.726562 284.285156 49.054688 C 284.835938 47.496094 284.324219 45.773438 283.367188 44.488281 C 281.875 42.449219 279.757812 40.980469 277.609375 39.703125 C 276.246094 38.90625 274.828125 38.207031 273.375 37.59375 Z M 273.375 37.59375 " fill-opacity="1" fill-rule="nonzero"/><path fill="#ffffff" d="M 336.523438 37.582031 C 337.433594 37.46875 338.359375 37.421875 339.277344 37.519531 C 343.609375 38.394531 347.992188 39.148438 352.207031 40.53125 C 353.4375 40.9375 354.667969 41.433594 355.675781 42.273438 C 357.015625 43.332031 357.875 44.871094 358.425781 46.464844 C 359.402344 49.320312 360.421875 52.171875 361.121094 55.109375 C 361.40625 56.363281 361.730469 57.761719 361.078125 58.960938 C 360.703125 59.730469 359.8125 60.113281 358.984375 60.058594 C 350.707031 59.429688 342.402344 59.101562 334.101562 58.96875 C 331.976562 58.882812 329.777344 59.171875 327.730469 58.464844 C 325.429688 57.671875 323.753906 55.769531 322.398438 53.832031 C 320.175781 50.605469 318.195312 47.214844 316.351562 43.765625 C 315.78125 42.597656 315.25 41.257812 315.582031 39.949219 C 315.84375 38.984375 316.875 38.558594 317.785156 38.496094 C 324.011719 37.882812 330.277344 37.890625 336.523438 37.582031 Z M 336.523438 37.582031 " fill-opacity="1" fill-rule="nonzero"/><path fill="#ffffff" d="M 268.238281 37.796875 C 271.480469 37.535156 274.546875 39.003906 277.261719 40.621094 C 278.992188 41.675781 280.671875 42.917969 281.847656 44.601562 C 282.800781 45.964844 283.289062 47.703125 282.980469 49.359375 C 282.53125 50.847656 281.171875 51.878906 279.722656 52.3125 C 277.875 52.859375 275.894531 52.78125 274.019531 52.421875 C 269.582031 51.5625 265.75 48.34375 263.953125 44.226562 C 263.390625 42.988281 263.308594 41.433594 264.199219 40.332031 C 265.21875 39.097656 266.578125 37.941406 268.238281 37.796875 Z M 268.238281 37.796875 " fill-opacity="1" fill-rule="nonzero"/><path fill="#ffffff" d="M 289.402344 37.882812 C 292.609375 37.335938 295.824219 38.59375 298.429688 40.394531 C 300.097656 41.535156 301.574219 42.929688 302.941406 44.410156 C 304.191406 45.695312 304.988281 47.375 305.429688 49.097656 C 305.734375 50.488281 305.753906 52.097656 304.84375 53.273438 C 303.769531 54.632812 301.910156 55.070312 300.257812 55.035156 C 295.816406 54.613281 291.601562 52.207031 288.984375 48.597656 C 288.03125 47.300781 287.261719 45.871094 286.683594 44.371094 C 286.214844 42.992188 286.089844 41.429688 286.667969 40.066406 C 287.144531 38.945312 288.203125 38.101562 289.402344 37.882812 Z M 289.402344 37.882812 " fill-opacity="1" fill-rule="nonzero"/><path fill="#ffffff" d="M 296.847656 38.363281 C 299.671875 39.898438 302.5 41.511719 304.925781 43.644531 C 306.148438 44.753906 307.324219 45.996094 307.96875 47.542969 C 308.46875 48.695312 308.527344 50.082031 307.949219 51.21875 C 307.511719 52.152344 306.738281 52.863281 305.9375 53.484375 C 306.769531 51.972656 306.972656 50.132812 306.417969 48.492188 C 305.570312 45.863281 303.640625 43.773438 301.636719 41.953125 C 300.15625 40.605469 298.484375 39.503906 296.847656 38.363281 Z M 296.847656 38.363281 " fill-opacity="1" fill-rule="nonzero"/><path fill="#ffffff" d="M 359.253906 44.375 C 359.335938 44.332031 359.496094 44.246094 359.578125 44.203125 C 360.363281 44.371094 360.96875 44.960938 361.535156 45.5 C 363.175781 47.242188 364.316406 49.382812 365.285156 51.554688 C 365.921875 53.070312 366.632812 54.589844 366.859375 56.234375 C 366.929688 56.9375 366.996094 57.773438 366.472656 58.335938 C 366.144531 58.546875 365.785156 58.28125 365.539062 58.070312 C 363.410156 55.972656 362.34375 53.085938 361 50.472656 C 360.289062 48.953125 359.523438 47.4375 359.128906 45.800781 C 359.054688 45.339844 358.917969 44.765625 359.253906 44.375 Z M 359.253906 44.375 " fill-opacity="1" fill-rule="nonzero"/><path fill="#ffffff" d="M 216.164062 49.558594 C 219.75 48.914062 223.546875 48.945312 226.980469 50.285156 C 229.996094 51.417969 232.605469 53.480469 234.613281 55.980469 C 237.117188 59.09375 238.785156 62.804688 239.898438 66.621094 C 241.09375 70.8125 241.664062 75.183594 241.605469 79.542969 C 241.382812 83.421875 240.867188 87.304688 239.839844 91.058594 C 238.867188 94.582031 237.417969 98.023438 235.203125 100.953125 C 233.253906 103.539062 230.65625 105.664062 227.65625 106.910156 C 224.257812 108.351562 220.457031 108.695312 216.8125 108.21875 C 219.984375 107.914062 223.125 106.886719 225.691406 104.960938 C 228.601562 102.8125 230.695312 99.730469 232.128906 96.445312 C 233.984375 92.171875 234.914062 87.558594 235.453125 82.953125 C 236.039062 78.464844 235.953125 73.910156 235.394531 69.425781 C 234.902344 65.730469 234 62.039062 232.28125 58.707031 C 230.804688 55.847656 228.632812 53.289062 225.832031 51.660156 C 222.9375 49.925781 219.496094 49.34375 216.164062 49.558594 Z M 216.164062 49.558594 " fill-opacity="1" fill-rule="nonzero"/><path fill="#ffffff" d="M 96.203125 59.539062 C 97.867188 62.394531 99.65625 65.222656 102 67.582031 C 103.363281 68.933594 104.949219 70.09375 106.753906 70.785156 C 108.648438 71.53125 110.699219 71.722656 112.710938 71.867188 C 137.128906 73.351562 161.554688 74.734375 185.976562 76.164062 C 187.457031 76.300781 188.957031 76.226562 190.425781 76.488281 C 178.855469 76.230469 167.28125 76.121094 155.710938 75.910156 C 140.851562 75.699219 125.992188 75.445312 111.132812 75.234375 C 109.207031 75.152344 107.253906 75.332031 105.359375 74.925781 C 102.519531 74.289062 100.300781 71.925781 99.421875 69.210938 C 98.363281 65.984375 97.210938 62.78125 96.203125 59.539062 Z M 96.203125 59.539062 " fill-opacity="1" fill-rule="nonzero"/><path fill="#ffffff" d="M 113.71875 79.761719 C 114.574219 79.660156 115.429688 79.453125 116.296875 79.460938 C 132.421875 80.097656 148.554688 80.675781 164.683594 81.152344 C 170.523438 81.300781 176.367188 81.496094 182.210938 81.515625 C 182.863281 81.527344 183.515625 81.589844 184.164062 81.675781 C 181.847656 81.613281 179.539062 81.871094 177.222656 81.898438 C 162.5625 82.496094 147.890625 82.535156 133.226562 82.46875 C 121.664062 82.410156 110.105469 82.210938 98.550781 81.9375 C 103.601562 81.167969 108.664062 80.492188 113.71875 79.761719 Z M 113.71875 79.761719 " fill-opacity="1" fill-rule="nonzero"/><g clip-path="url(#e1a7c04632)"><path fill="#ffffff" d="M 249.25 81.539062 C 249.382812 81.191406 249.773438 81.25 250.074219 81.25 C 258.722656 81.664062 267.382812 82.035156 276.046875 81.832031 C 277.398438 84.503906 279.714844 86.699219 282.542969 87.730469 C 284.371094 88.433594 286.347656 88.710938 288.304688 88.621094 C 303.941406 89.613281 319.609375 90.425781 335.285156 90.203125 C 340.867188 89.996094 346.441406 89.660156 352.003906 89.148438 C 356.328125 88.71875 360.652344 88.210938 364.90625 87.3125 C 366.734375 86.90625 368.570312 86.460938 370.304688 85.730469 C 371.203125 85.335938 372.152344 84.886719 372.699219 84.027344 C 373.597656 85.175781 373.996094 86.605469 374.40625 87.980469 C 374.78125 89.28125 374.53125 90.765625 373.636719 91.800781 C 372.34375 93.316406 370.425781 94.085938 368.585938 94.707031 C 364.742188 95.925781 360.726562 96.453125 356.738281 96.921875 C 346.378906 98.011719 335.957031 98.320312 325.554688 98.671875 C 304.035156 99.375 282.480469 98.738281 261.03125 96.921875 C 257.570312 96.609375 254.117188 96.292969 250.667969 95.882812 C 250.402344 95.808594 249.957031 95.847656 249.910156 95.484375 C 249.921875 90.832031 249.671875 86.171875 249.25 81.539062 Z M 249.25 81.539062 " fill-opacity="1" fill-rule="nonzero"/></g><path fill="#ffffff" d="M 234.160156 104.820312 C 239.992188 99.792969 242.980469 92.066406 243.308594 84.488281 C 243.828125 86.582031 243.804688 88.757812 243.941406 90.898438 C 244.011719 93.746094 244.101562 96.601562 243.9375 99.445312 C 244.058594 100.03125 244.792969 100.191406 245.300781 100.304688 C 247.78125 100.679688 250.300781 100.648438 252.800781 100.84375 C 252.097656 102.019531 251.035156 102.917969 250.078125 103.878906 C 248.59375 105.304688 247.042969 106.664062 245.457031 107.972656 C 243.632812 109.453125 241.140625 109.351562 238.933594 109.632812 C 234.191406 109.96875 229.410156 110.324219 224.660156 109.886719 C 228.128906 108.875 231.421875 107.195312 234.160156 104.820312 Z M 234.160156 104.820312 " fill-opacity="1" fill-rule="nonzero"/><path fill="#ffffff" d="M 61.136719 88.398438 C 65.53125 88.742188 69.90625 89.300781 74.296875 89.707031 C 94.589844 91.757812 114.894531 93.710938 135.21875 95.480469 C 148.808594 96.644531 162.410156 97.761719 176.03125 98.546875 C 179.371094 98.683594 182.707031 98.933594 186.054688 98.960938 C 180.65625 99.039062 175.257812 98.890625 169.859375 98.851562 C 156.1875 98.738281 142.519531 98.625 128.84375 98.570312 C 127.867188 98.546875 126.886719 98.601562 125.910156 98.53125 C 104.316406 95.171875 82.730469 91.742188 61.136719 88.398438 Z M 61.136719 88.398438 " fill-opacity="1" fill-rule="nonzero"/><g clip-path="url(#1b23c87889)"><path fill="#ffffff" d="M 337.277344 101.925781 C 341.507812 101.808594 345.734375 101.617188 349.949219 101.261719 C 349.226562 102.582031 347.992188 103.515625 346.863281 104.472656 C 341.617188 108.5625 335.203125 111.320312 328.523438 111.710938 C 324.261719 111.953125 319.949219 111.113281 316.089844 109.285156 C 312.367188 107.550781 309.066406 105 306.226562 102.050781 C 316.578125 102.179688 326.929688 102.199219 337.277344 101.925781 Z M 337.277344 101.925781 " fill-opacity="1" fill-rule="nonzero"/></g><g fill="#ffffff" fill-opacity="1"><g transform="translate(93.482943, 178.844975)"><g><path d="M 35.46875 -49.3125 C 42.863281 -49.3125 48.4375 -47.890625 52.1875 -45.046875 C 55.9375 -42.210938 57.8125 -38.054688 57.8125 -32.578125 C 57.8125 -29.859375 57.320312 -26.722656 56.34375 -23.171875 C 54.707031 -17.441406 52.507812 -12.898438 49.75 -9.546875 C 46.988281 -6.191406 43.347656 -3.75 38.828125 -2.21875 C 34.316406 -0.6875 28.53125 0.0507812 21.46875 0 L 1.328125 -0.078125 C 0.296875 -0.078125 -0.5 -0.25 -1.0625 -0.59375 C -1.632812 -0.9375 -1.921875 -1.40625 -1.921875 -2 C -1.921875 -2.289062 -1.847656 -2.613281 -1.703125 -2.96875 C -1.554688 -3.40625 -1.347656 -3.722656 -1.078125 -3.921875 C -0.804688 -4.117188 -0.398438 -4.390625 0.140625 -4.734375 C 0.929688 -5.179688 1.5625 -5.675781 2.03125 -6.21875 C 2.5 -6.757812 2.90625 -7.625 3.25 -8.8125 L 12.296875 -40.640625 C 12.484375 -41.285156 12.578125 -41.90625 12.578125 -42.5 C 12.578125 -43.039062 12.488281 -43.492188 12.3125 -43.859375 C 12.144531 -44.234375 11.914062 -44.664062 11.625 -45.15625 C 11.175781 -45.800781 10.953125 -46.320312 10.953125 -46.71875 C 10.953125 -46.863281 11.003906 -47.132812 11.109375 -47.53125 C 11.304688 -48.164062 11.738281 -48.617188 12.40625 -48.890625 C 13.070312 -49.171875 14.09375 -49.3125 15.46875 -49.3125 Z M 37.390625 -24.796875 C 38.671875 -29.441406 39.3125 -33.09375 39.3125 -35.75 C 39.3125 -38.375 38.765625 -40.175781 37.671875 -41.15625 C 36.585938 -42.144531 35.035156 -42.640625 33.015625 -42.640625 L 31.390625 -42.640625 L 21.390625 -6.65625 L 23.171875 -6.65625 C 25.441406 -6.65625 27.351562 -7.132812 28.90625 -8.09375 C 30.457031 -9.0625 31.898438 -10.84375 33.234375 -13.4375 C 34.566406 -16.03125 35.953125 -19.816406 37.390625 -24.796875 Z M 37.390625 -24.796875 "/></g></g></g><g fill="#ffffff" fill-opacity="1"><g transform="translate(150.626665, 178.844975)"><g><path d="M 79.515625 -49.3125 C 80.546875 -49.3125 81.34375 -49.148438 81.90625 -48.828125 C 82.476562 -48.503906 82.765625 -48.046875 82.765625 -47.453125 C 82.765625 -47.203125 82.691406 -46.878906 82.546875 -46.484375 C 82.398438 -46.046875 82.191406 -45.710938 81.921875 -45.484375 C 81.648438 -45.265625 81.238281 -44.984375 80.6875 -44.640625 C 79.90625 -44.191406 79.28125 -43.695312 78.8125 -43.15625 C 78.34375 -42.613281 77.929688 -41.773438 77.578125 -40.640625 L 68.546875 -8.8125 C 68.347656 -8.164062 68.25 -7.546875 68.25 -6.953125 C 68.25 -6.410156 68.335938 -5.953125 68.515625 -5.578125 C 68.691406 -5.210938 68.925781 -4.785156 69.21875 -4.296875 C 69.414062 -4.046875 69.585938 -3.785156 69.734375 -3.515625 C 69.878906 -3.242188 69.953125 -2.960938 69.953125 -2.671875 C 69.953125 -2.566406 69.90625 -2.316406 69.8125 -1.921875 C 69.613281 -1.285156 69.15625 -0.816406 68.4375 -0.515625 C 67.726562 -0.222656 66.707031 -0.078125 65.375 -0.078125 L 47.96875 -0.078125 C 46.9375 -0.078125 46.132812 -0.25 45.5625 -0.59375 C 45 -0.9375 44.71875 -1.40625 44.71875 -2 C 44.71875 -2.289062 44.789062 -2.613281 44.9375 -2.96875 C 45.082031 -3.3125 45.289062 -3.617188 45.5625 -3.890625 C 45.832031 -4.160156 46.078125 -4.351562 46.296875 -4.46875 C 46.523438 -4.59375 46.6875 -4.707031 46.78125 -4.8125 C 47.570312 -5.257812 48.210938 -5.753906 48.703125 -6.296875 C 49.203125 -6.835938 49.625 -7.675781 49.96875 -8.8125 L 55.59375 -28.796875 L 36.421875 -5.03125 C 34.835938 -3.101562 33.566406 -1.78125 32.609375 -1.0625 C 31.648438 -0.351562 30.550781 0 29.3125 0 C 28.132812 0 27.210938 -0.378906 26.546875 -1.140625 C 25.878906 -1.910156 25.269531 -3.207031 24.71875 -5.03125 L 17.765625 -27.90625 L 12.296875 -8.734375 C 12.097656 -8.085938 12 -7.472656 12 -6.890625 C 12 -6.296875 12.082031 -5.800781 12.25 -5.40625 C 12.425781 -5.007812 12.6875 -4.585938 13.03125 -4.140625 C 13.476562 -3.503906 13.703125 -2.988281 13.703125 -2.59375 C 13.703125 -2.488281 13.648438 -2.238281 13.546875 -1.84375 C 13.347656 -1.15625 12.898438 -0.675781 12.203125 -0.40625 C 11.515625 -0.132812 10.484375 0 9.109375 0 L 2.96875 0 C 1.925781 0 1.117188 -0.171875 0.546875 -0.515625 C -0.015625 -0.859375 -0.296875 -1.328125 -0.296875 -1.921875 C -0.296875 -2.222656 -0.222656 -2.546875 -0.078125 -2.890625 C 0.117188 -3.429688 0.4375 -3.847656 0.875 -4.140625 C 1.320312 -4.441406 1.597656 -4.613281 1.703125 -4.65625 C 2.492188 -5.15625 3.132812 -5.660156 3.625 -6.171875 C 4.125 -6.691406 4.546875 -7.546875 4.890625 -8.734375 L 13.921875 -40.71875 L 12.734375 -44.640625 C 12.484375 -45.378906 12.359375 -46.09375 12.359375 -46.78125 C 12.359375 -47.675781 12.640625 -48.320312 13.203125 -48.71875 C 13.773438 -49.113281 14.65625 -49.3125 15.84375 -49.3125 L 27.3125 -49.3125 C 28.789062 -49.3125 29.890625 -48.988281 30.609375 -48.34375 C 31.328125 -47.695312 31.910156 -46.585938 32.359375 -45.015625 L 39.75 -20.4375 L 59.8125 -45.375 C 61.09375 -46.957031 62.347656 -48.007812 63.578125 -48.53125 C 64.816406 -49.050781 66.453125 -49.3125 68.484375 -49.3125 Z M 79.515625 -49.3125 "/></g></g></g><g fill="#ffffff" fill-opacity="1"><g transform="translate(227.237764, 178.844975)"><g><path d="M 63 -42.203125 C 63 -40.421875 62.613281 -38.890625 61.84375 -37.609375 C 61.082031 -36.328125 60.109375 -35.351562 58.921875 -34.6875 C 57.742188 -34.019531 56.5625 -33.6875 55.375 -33.6875 C 54.1875 -33.6875 53.113281 -33.929688 52.15625 -34.421875 C 51.195312 -34.921875 50.394531 -35.585938 49.75 -36.421875 L 31.90625 -6.359375 C 30.570312 -4.097656 29.335938 -2.472656 28.203125 -1.484375 C 27.066406 -0.492188 25.785156 0 24.359375 0 C 22.828125 0 21.601562 -0.503906 20.6875 -1.515625 C 19.78125 -2.523438 19.128906 -4.140625 18.734375 -6.359375 L 12.515625 -40.5625 C 12.367188 -41.457031 12.097656 -42.175781 11.703125 -42.71875 C 11.304688 -43.257812 10.785156 -43.851562 10.140625 -44.5 C 9.648438 -44.9375 9.304688 -45.289062 9.109375 -45.5625 C 8.910156 -45.832031 8.8125 -46.164062 8.8125 -46.5625 C 8.5625 -48.394531 9.644531 -49.3125 12.0625 -49.3125 L 30.578125 -49.3125 C 31.710938 -49.3125 32.570312 -49.070312 33.15625 -48.59375 C 33.75 -48.125 34.023438 -47.5 33.984375 -46.71875 C 33.984375 -46.269531 33.894531 -45.894531 33.71875 -45.59375 C 33.550781 -45.300781 33.269531 -44.9375 32.875 -44.5 C 32.425781 -44 32.078125 -43.523438 31.828125 -43.078125 C 31.585938 -42.640625 31.46875 -42.097656 31.46875 -41.453125 C 31.46875 -41.160156 31.488281 -40.914062 31.53125 -40.71875 L 34.34375 -23.46875 L 44.203125 -40.9375 C 45.921875 -44.09375 47.617188 -46.320312 49.296875 -47.625 C 50.984375 -48.9375 53.0625 -49.59375 55.53125 -49.59375 C 57.789062 -49.59375 59.597656 -48.9375 60.953125 -47.625 C 62.316406 -46.320312 63 -44.515625 63 -42.203125 Z M 63 -42.203125 "/></g></g></g></svg>