<svg xmlns="http://www.w3.org/2000/svg" xmlns:xlink="http://www.w3.org/1999/xlink" zoomAndPan="magnify" viewBox="0 0 375 374.999991"  preserveAspectRatio="xMidYMid meet" version="1.0"><defs><clipPath id="8e09540730"><path d="M 2.386719 3 L 359 3 L 359 360 L 2.386719 360 Z M 2.386719 3 " clip-rule="nonzero"/></clipPath></defs><path fill="#ffffff" d="M 332.609375 176.578125 C 332.609375 179.105469 332.546875 181.632812 332.421875 184.160156 C 332.296875 186.6875 332.113281 189.207031 331.863281 191.726562 C 331.617188 194.242188 331.308594 196.753906 330.9375 199.253906 C 330.566406 201.753906 330.132812 204.246094 329.640625 206.726562 C 329.144531 209.207031 328.589844 211.675781 327.976562 214.128906 C 327.363281 216.582031 326.6875 219.019531 325.953125 221.441406 C 325.21875 223.859375 324.425781 226.261719 323.574219 228.644531 C 322.722656 231.023438 321.8125 233.382812 320.84375 235.71875 C 319.875 238.058594 318.851562 240.367188 317.769531 242.65625 C 316.6875 244.941406 315.550781 247.199219 314.359375 249.429688 C 313.167969 251.660156 311.921875 253.859375 310.621094 256.03125 C 309.320312 258.199219 307.96875 260.335938 306.5625 262.4375 C 305.15625 264.542969 303.699219 266.609375 302.195312 268.640625 C 300.6875 270.671875 299.132812 272.667969 297.527344 274.621094 C 295.921875 276.578125 294.269531 278.492188 292.574219 280.367188 C 290.875 282.238281 289.128906 284.070312 287.34375 285.859375 C 285.554688 287.648438 283.722656 289.390625 281.847656 291.089844 C 279.972656 292.789062 278.058594 294.441406 276.105469 296.042969 C 274.148438 297.648438 272.15625 299.203125 270.125 300.710938 C 268.09375 302.21875 266.027344 303.675781 263.921875 305.078125 C 261.820312 306.484375 259.683594 307.835938 257.515625 309.136719 C 255.34375 310.4375 253.144531 311.683594 250.914062 312.875 C 248.683594 314.070312 246.425781 315.207031 244.136719 316.285156 C 241.851562 317.367188 239.539062 318.394531 237.203125 319.359375 C 234.867188 320.328125 232.507812 321.238281 230.125 322.089844 C 227.746094 322.941406 225.34375 323.734375 222.921875 324.46875 C 220.503906 325.203125 218.066406 325.878906 215.613281 326.492188 C 213.160156 327.109375 210.691406 327.664062 208.210938 328.15625 C 205.730469 328.648438 203.238281 329.082031 200.738281 329.453125 C 198.234375 329.824219 195.726562 330.132812 193.207031 330.382812 C 190.691406 330.628906 188.167969 330.816406 185.644531 330.9375 C 183.117188 331.0625 180.589844 331.125 178.058594 331.125 C 175.53125 331.125 173.003906 331.0625 170.476562 330.9375 C 167.949219 330.816406 165.429688 330.628906 162.910156 330.382812 C 160.394531 330.132812 157.886719 329.824219 155.382812 329.453125 C 152.882812 329.082031 150.390625 328.648438 147.910156 328.15625 C 145.429688 327.664062 142.960938 327.109375 140.507812 326.492188 C 138.054688 325.878906 135.617188 325.203125 133.195312 324.46875 C 130.777344 323.734375 128.375 322.941406 125.996094 322.089844 C 123.613281 321.238281 121.253906 320.328125 118.917969 319.359375 C 116.582031 318.394531 114.269531 317.367188 111.980469 316.285156 C 109.695312 315.207031 107.4375 314.070312 105.207031 312.875 C 102.976562 311.683594 100.777344 310.4375 98.605469 309.136719 C 96.4375 307.835938 94.300781 306.484375 92.199219 305.078125 C 90.09375 303.675781 88.027344 302.21875 85.996094 300.710938 C 83.964844 299.203125 81.972656 297.648438 80.015625 296.042969 C 78.0625 294.441406 76.144531 292.789062 74.273438 291.089844 C 72.398438 289.390625 70.566406 287.648438 68.777344 285.859375 C 66.988281 284.070312 65.246094 282.238281 63.546875 280.367188 C 61.847656 278.492188 60.195312 276.578125 58.59375 274.621094 C 56.988281 272.667969 55.433594 270.671875 53.925781 268.640625 C 52.417969 266.609375 50.964844 264.542969 49.558594 262.4375 C 48.152344 260.335938 46.800781 258.199219 45.5 256.03125 C 44.199219 253.859375 42.953125 251.660156 41.761719 249.429688 C 40.570312 247.199219 39.429688 244.941406 38.351562 242.65625 C 37.269531 240.367188 36.242188 238.058594 35.277344 235.71875 C 34.308594 233.382812 33.398438 231.023438 32.546875 228.644531 C 31.695312 226.261719 30.902344 223.859375 30.167969 221.441406 C 29.433594 219.019531 28.757812 216.582031 28.144531 214.128906 C 27.527344 211.675781 26.976562 209.207031 26.480469 206.726562 C 25.988281 204.246094 25.554688 201.753906 25.183594 199.253906 C 24.8125 196.753906 24.503906 194.242188 24.257812 191.726562 C 24.007812 189.207031 23.820312 186.6875 23.699219 184.160156 C 23.574219 181.632812 23.511719 179.105469 23.511719 176.578125 C 23.511719 174.046875 23.574219 171.519531 23.699219 168.992188 C 23.820312 166.46875 24.007812 163.945312 24.257812 161.429688 C 24.503906 158.910156 24.8125 156.402344 25.183594 153.898438 C 25.554688 151.398438 25.988281 148.90625 26.480469 146.425781 C 26.976562 143.945312 27.527344 141.476562 28.144531 139.023438 C 28.757812 136.570312 29.433594 134.132812 30.167969 131.714844 C 30.902344 129.292969 31.695312 126.894531 32.546875 124.511719 C 33.398438 122.128906 34.308594 119.769531 35.277344 117.433594 C 36.242188 115.097656 37.269531 112.785156 38.351562 110.5 C 39.429688 108.210938 40.570312 105.953125 41.761719 103.722656 C 42.953125 101.492188 44.199219 99.292969 45.5 97.125 C 46.800781 94.953125 48.152344 92.816406 49.558594 90.714844 C 50.964844 88.613281 52.417969 86.542969 53.925781 84.511719 C 55.433594 82.480469 56.988281 80.488281 58.59375 78.53125 C 60.195312 76.578125 61.847656 74.664062 63.546875 72.789062 C 65.246094 70.914062 66.988281 69.082031 68.777344 67.292969 C 70.566406 65.507812 72.398438 63.761719 74.273438 62.0625 C 76.144531 60.367188 78.0625 58.714844 80.015625 57.109375 C 81.972656 55.503906 83.964844 53.949219 85.996094 52.441406 C 88.027344 50.9375 90.09375 49.480469 92.199219 48.074219 C 94.300781 46.667969 96.4375 45.316406 98.605469 44.015625 C 100.777344 42.714844 102.976562 41.46875 105.207031 40.277344 C 107.4375 39.085938 109.695312 37.949219 111.980469 36.867188 C 114.269531 35.785156 116.582031 34.761719 118.917969 33.792969 C 121.253906 32.824219 123.613281 31.914062 125.996094 31.0625 C 128.375 30.210938 130.777344 29.417969 133.195312 28.683594 C 135.617188 27.949219 138.054688 27.273438 140.507812 26.660156 C 142.960938 26.046875 145.429688 25.492188 147.910156 25 C 150.390625 24.503906 152.882812 24.074219 155.382812 23.703125 C 157.886719 23.332031 160.394531 23.019531 162.910156 22.773438 C 165.429688 22.523438 167.949219 22.339844 170.476562 22.214844 C 173.003906 22.089844 175.53125 22.027344 178.058594 22.027344 C 180.589844 22.027344 183.117188 22.089844 185.644531 22.214844 C 188.167969 22.339844 190.691406 22.523438 193.207031 22.773438 C 195.726562 23.019531 198.234375 23.332031 200.738281 23.703125 C 203.238281 24.074219 205.730469 24.503906 208.210938 25 C 210.691406 25.492188 213.160156 26.046875 215.613281 26.660156 C 218.066406 27.273438 220.503906 27.949219 222.921875 28.683594 C 225.34375 29.417969 227.746094 30.210938 230.125 31.0625 C 232.507812 31.914062 234.867188 32.824219 237.203125 33.792969 C 239.539062 34.761719 241.851562 35.785156 244.136719 36.867188 C 246.425781 37.949219 248.683594 39.085938 250.914062 40.277344 C 253.144531 41.46875 255.34375 42.714844 257.515625 44.015625 C 259.683594 45.316406 261.820312 46.667969 263.921875 48.074219 C 266.027344 49.480469 268.09375 50.9375 270.125 52.441406 C 272.15625 53.949219 274.148438 55.503906 276.105469 57.109375 C 278.058594 58.714844 279.972656 60.367188 281.847656 62.0625 C 283.722656 63.761719 285.554688 65.507812 287.34375 67.292969 C 289.128906 69.082031 290.875 70.914062 292.574219 72.789062 C 294.269531 74.664062 295.921875 76.578125 297.527344 78.53125 C 299.132812 80.488281 300.6875 82.480469 302.195312 84.511719 C 303.699219 86.542969 305.15625 88.613281 306.5625 90.714844 C 307.96875 92.816406 309.320312 94.953125 310.621094 97.125 C 311.921875 99.292969 313.167969 101.492188 314.359375 103.722656 C 315.550781 105.953125 316.6875 108.210938 317.769531 110.5 C 318.851562 112.785156 319.875 115.097656 320.84375 117.433594 C 321.8125 119.769531 322.722656 122.128906 323.574219 124.511719 C 324.425781 126.894531 325.21875 129.292969 325.953125 131.714844 C 326.6875 134.132812 327.363281 136.570312 327.976562 139.023438 C 328.589844 141.476562 329.144531 143.945312 329.640625 146.425781 C 330.132812 148.90625 330.566406 151.398438 330.9375 153.898438 C 331.308594 156.402344 331.617188 158.910156 331.863281 161.429688 C 332.113281 163.945312 332.296875 166.46875 332.421875 168.992188 C 332.546875 171.519531 332.609375 174.046875 332.609375 176.578125 Z M 332.609375 176.578125 " fill-opacity="1" fill-rule="nonzero"/><g clip-path="url(#8e09540730)"><path fill="#487063" d="M 313.738281 64 C 311.527344 61.480469 309.246094 59.027344 306.898438 56.632812 C 304.550781 54.242188 302.136719 51.921875 299.65625 49.667969 C 297.175781 47.414062 294.632812 45.230469 292.03125 43.121094 C 289.425781 41.007812 286.765625 38.972656 284.046875 37.011719 C 281.328125 35.054688 278.554688 33.171875 275.730469 31.367188 C 272.90625 29.566406 270.03125 27.84375 267.109375 26.203125 C 264.183594 24.5625 261.21875 23.007812 258.207031 21.535156 C 255.195312 20.0625 252.148438 18.675781 249.058594 17.375 C 245.96875 16.074219 242.84375 14.863281 239.6875 13.738281 C 236.527344 12.617188 233.34375 11.582031 230.125 10.640625 C 226.910156 9.695312 223.667969 8.84375 220.40625 8.085938 C 217.140625 7.324219 213.855469 6.660156 210.554688 6.085938 C 207.253906 5.511719 203.9375 5.03125 200.609375 4.644531 C 197.277344 4.257812 193.941406 3.964844 190.59375 3.769531 C 187.25 3.570312 183.902344 3.46875 180.550781 3.460938 C 177.199219 3.453125 173.847656 3.539062 170.5 3.71875 C 167.15625 3.902344 163.816406 4.175781 160.484375 4.546875 C 157.152344 4.917969 153.835938 5.382812 150.53125 5.941406 C 147.226562 6.5 143.9375 7.148438 140.671875 7.894531 C 137.402344 8.636719 134.160156 9.472656 130.9375 10.402344 C 127.71875 11.328125 124.523438 12.347656 121.363281 13.453125 C 118.199219 14.5625 115.070312 15.757812 111.972656 17.042969 C 108.878906 18.328125 105.820312 19.699219 102.804688 21.160156 C 99.785156 22.617188 96.8125 24.160156 93.882812 25.785156 C 90.949219 27.414062 88.070312 29.121094 85.234375 30.910156 C 82.402344 32.699219 79.621094 34.566406 76.890625 36.515625 C 74.164062 38.460938 71.492188 40.484375 68.878906 42.582031 C 66.265625 44.679688 63.710938 46.847656 61.222656 49.089844 C 58.730469 51.335938 56.304688 53.644531 53.945312 56.023438 C 51.582031 58.402344 49.292969 60.847656 47.070312 63.359375 C 44.847656 65.867188 42.699219 68.4375 40.621094 71.066406 C 38.546875 73.699219 36.546875 76.386719 34.621094 79.128906 C 30.597656 84.851562 26.917969 90.785156 23.582031 96.933594 C 17.335938 108.539062 12.445312 120.691406 8.917969 133.390625 C 5.386719 146.089844 3.304688 159.019531 2.664062 172.183594 C 2.527344 175.183594 2.433594 178.203125 2.433594 181.226562 C 2.433594 184.800781 2.539062 188.375 2.753906 191.949219 C 2.96875 195.519531 3.292969 199.078125 3.722656 202.628906 C 4.152344 206.183594 4.6875 209.71875 5.332031 213.234375 C 5.972656 216.753906 6.722656 220.25 7.578125 223.726562 C 8.429688 227.199219 9.390625 230.644531 10.453125 234.058594 C 11.515625 237.476562 12.679688 240.855469 13.945312 244.203125 C 15.210938 247.546875 16.578125 250.851562 18.042969 254.117188 C 19.507812 257.378906 21.070312 260.59375 22.730469 263.765625 C 24.390625 266.933594 26.144531 270.046875 27.992188 273.113281 C 29.839844 276.175781 31.78125 279.179688 33.808594 282.125 C 35.839844 285.070312 37.957031 287.953125 40.160156 290.773438 C 42.363281 293.589844 44.648438 296.339844 47.019531 299.019531 C 49.386719 301.699219 51.835938 304.304688 54.363281 306.839844 C 56.886719 309.371094 59.488281 311.824219 62.164062 314.199219 C 64.839844 316.574219 67.582031 318.867188 70.394531 321.078125 C 73.210938 323.289062 76.085938 325.410156 79.027344 327.445312 C 81.96875 329.484375 84.96875 331.429688 88.027344 333.285156 C 91.085938 335.136719 94.199219 336.898438 97.363281 338.566406 C 100.527344 340.234375 103.742188 341.804688 107 343.277344 C 110.261719 344.75 113.5625 346.125 116.90625 347.398438 C 120.246094 348.671875 123.625 349.84375 127.039062 350.914062 C 130.453125 351.984375 133.894531 352.949219 137.367188 353.8125 C 140.839844 354.675781 144.332031 355.433594 147.851562 356.082031 C 151.367188 356.734375 154.902344 357.28125 158.453125 357.71875 C 162.003906 358.15625 165.5625 358.484375 169.132812 358.710938 C 172.703125 358.933594 176.277344 359.046875 179.855469 359.054688 C 183.433594 359.0625 187.007812 358.960938 190.578125 358.753906 C 194.148438 358.546875 197.710938 358.230469 201.261719 357.804688 C 204.816406 357.382812 208.351562 356.851562 211.871094 356.214844 C 215.390625 355.578125 218.890625 354.835938 222.367188 353.988281 C 225.839844 353.140625 229.289062 352.1875 232.707031 351.132812 C 236.125 350.074219 239.507812 348.917969 242.855469 347.65625 C 246.203125 346.398438 249.507812 345.039062 252.773438 343.578125 C 256.039062 342.117188 259.257812 340.5625 262.429688 338.90625 C 265.601562 337.253906 268.722656 335.503906 271.789062 333.660156 C 274.855469 331.820312 277.863281 329.886719 280.8125 327.863281 C 283.761719 325.839844 286.648438 323.726562 289.46875 321.527344 C 292.292969 319.332031 295.046875 317.050781 297.730469 314.683594 C 300.414062 312.320312 303.027344 309.875 305.5625 307.355469 C 308.101562 304.832031 310.558594 302.238281 312.9375 299.566406 C 315.320312 296.894531 317.617188 294.15625 319.832031 291.347656 C 322.046875 288.539062 324.175781 285.664062 326.214844 282.726562 C 328.257812 279.789062 330.210938 276.792969 332.070312 273.738281 C 333.929688 270.683594 335.699219 267.574219 337.371094 264.410156 C 339.042969 261.25 340.621094 258.039062 342.097656 254.78125 C 343.578125 251.527344 344.957031 248.226562 346.238281 244.886719 C 347.519531 241.546875 348.695312 238.167969 349.773438 234.757812 C 350.847656 231.347656 351.820312 227.90625 352.691406 224.4375 C 353.558594 220.964844 354.320312 217.472656 354.980469 213.957031 C 355.636719 210.4375 356.1875 206.90625 356.632812 203.355469 C 357.078125 199.808594 357.414062 196.246094 357.644531 192.675781 C 357.875 189.109375 357.996094 185.535156 358.007812 181.957031 C 358.023438 178.378906 357.929688 174.804688 357.726562 171.234375 C 357.523438 167.660156 357.214844 164.097656 356.796875 160.546875 C 356.382812 156.992188 355.859375 153.457031 355.226562 149.933594 C 354.597656 146.414062 353.859375 142.914062 353.019531 139.4375 C 352.179688 135.960938 351.230469 132.511719 350.183594 129.09375 C 349.132812 125.671875 347.980469 122.289062 346.726562 118.9375 C 345.472656 115.585938 344.117188 112.277344 342.664062 109.007812 C 341.210938 105.742188 339.660156 102.519531 338.011719 99.34375 C 336.363281 96.167969 334.621094 93.046875 332.78125 89.976562 C 330.945312 86.90625 329.019531 83.894531 327 80.941406 C 324.980469 77.988281 322.875 75.097656 320.683594 72.273438 C 318.488281 69.445312 316.214844 66.691406 313.851562 64 Z M 120.84375 205.765625 C 135.855469 216.316406 149.917969 222.640625 164.441406 224.988281 L 164.441406 196.796875 C 126.699219 188.128906 107.480469 175.253906 107.480469 146.179688 L 107.480469 145.714844 C 107.480469 118.058594 127.652344 98.839844 163.511719 96.257812 L 163.511719 82.894531 L 187.890625 82.894531 L 187.890625 96.957031 C 196.765625 97.886719 205.386719 99.898438 213.757812 102.996094 C 222.125 106.089844 229.980469 110.175781 237.324219 115.246094 L 218.101562 146.644531 C 208.5 140.050781 198.035156 135.402344 186.707031 132.699219 L 186.707031 159.890625 C 223.890625 168.558594 242.714844 181.921875 242.714844 211.019531 L 242.714844 211.484375 C 242.714844 240.070312 220.683594 257.640625 187.402344 260.707031 L 187.402344 283.667969 L 163.046875 283.667969 L 163.046875 260.078125 C 157.386719 259.535156 151.78125 258.632812 146.234375 257.371094 C 140.6875 256.109375 135.246094 254.496094 129.90625 252.535156 C 124.570312 250.578125 119.375 248.28125 114.332031 245.65625 C 109.289062 243.027344 104.429688 240.089844 99.761719 236.839844 Z M 120.84375 205.765625 " fill-opacity="1" fill-rule="nonzero"/></g><path fill="#487063" d="M 202.183594 214.390625 L 202.183594 213.925781 C 202.183594 207.578125 198.652344 204.070312 186.472656 200.5625 L 186.472656 226.335938 C 197.257812 225.171875 202.183594 221.175781 202.183594 214.390625 Z M 202.183594 214.390625 " fill-opacity="1" fill-rule="nonzero"/><path fill="#487063" d="M 164.671875 130.46875 C 153.191406 131.421875 148.730469 136.117188 148.730469 142.203125 L 148.730469 142.667969 C 148.730469 148.757812 152.03125 152.269531 164.671875 155.800781 Z M 164.671875 130.46875 " fill-opacity="1" fill-rule="nonzero"/></svg>