<svg xmlns="http://www.w3.org/2000/svg" xmlns:xlink="http://www.w3.org/1999/xlink" width="100" zoomAndPan="magnify" viewBox="0 0 75 74.999997" height="100" preserveAspectRatio="xMidYMid meet" version="1.0"><defs><clipPath id="902a0ac970"><path d="M 0 0 L 75 0 L 75 56.25 L 0 56.25 Z M 0 0 " clip-rule="nonzero"/></clipPath></defs><path fill="#ffffff" d="M 0.0742188 32.289062 C 0.0742188 32.289062 4.742188 26.660156 10.011719 24.964844 C 11.4375 26.035156 19.53125 42.203125 20.957031 42.023438 C 22.5625 41.84375 33.136719 27.109375 56.007812 0.0820312 C 56.007812 0.0820312 62.625 3.085938 74.804688 3.714844 C 42.960938 28.691406 26.492188 53.035156 25.046875 54.214844 C 20.945312 56.175781 18.839844 55.039062 17.414062 54.148438 C 14.023438 51.117188 0.253906 33.003906 0.0742188 32.289062 Z M 0.0742188 32.289062 " fill-opacity="1" fill-rule="evenodd"/><g clip-path="url(#902a0ac970)"><path stroke-linecap="butt" transform="matrix(0.133897, 0, 0, 0.133897, -9.081453, -46.598724)" fill="none" stroke-linejoin="miter" d="M 68.378633 589.169107 C 68.378633 589.169107 103.241102 547.129929 142.596307 534.46858 C 153.244676 542.462151 213.692404 663.211739 224.340774 661.869753 C 236.331129 660.527767 315.304102 550.484895 486.115612 348.632659 C 486.115612 348.632659 535.535714 371.067168 626.499043 375.76412 C 388.675741 562.300208 265.679785 744.110171 254.885547 752.920602 C 224.253253 767.565757 208.528675 759.076235 197.880306 752.424651 C 172.557609 729.785926 69.720619 594.507878 68.378633 589.169107 Z M 68.378633 589.169107 " stroke="#000000" stroke-width="1" stroke-opacity="1" stroke-miterlimit="4"/></g></svg>